<svg xmlns="http://www.w3.org/2000/svg" version="1.1" xmlns:xlink="http://www.w3.org/1999/xlink" width="1000" height="1000"><metadata><rdf:RDF xmlns:rdf="http://www.w3.org/1999/02/22-rdf-syntax-ns#" xmlns:dc="http://purl.org/dc/elements/1.1/"><rdf:Description><dc:creator>RealFaviconGenerator</dc:creator><dc:source>https://realfavicongenerator.net</dc:source></rdf:Description></rdf:RDF></metadata><style>
    #light-icon {
      display: inline;
    }
    #dark-icon {
      display: none;
    }

    @media (prefers-color-scheme: dark) {
      #light-icon {
        display: none;
      }
      #dark-icon {
        display: inline;
      }
    }
  </style><g id="light-icon"><svg xmlns="http://www.w3.org/2000/svg" version="1.1" xmlns:xlink="http://www.w3.org/1999/xlink" width="1000" height="1000"><g clip-path="url(#SvgjsClipPath1022)"><rect width="1000" height="1000" fill="#f0f6e5"></rect><g transform="matrix(7,0,0,7,150,150)"><svg xmlns="http://www.w3.org/2000/svg" width="100" height="100" viewBox="0 0 100 100" fill="none"><path fill-rule="evenodd" clip-rule="evenodd" d="M50 100C51.6293 100 53.2404 99.9221 54.8298 99.7697C52.2162 98.7323 49.8832 97.2978 47.913 95.0499C44.3538 90.9889 42.6936 85.5568 43.0609 80.1944C43.313 76.5147 44.7214 73.2025 47.5467 70.7663C50.1704 68.5039 53.7088 67.1483 57.163 67.0416C57.8544 67.0202 58.5201 67.0794 59.1957 67.1394C59.4098 67.1585 59.6257 67.1777 59.843 67.1943L59.8323 67.142C59.1189 66.6127 57.2328 66.422 56.3476 66.4086C52.5997 66.3526 48.8932 68.0231 46.2342 70.6295C43.3168 73.4889 42.0471 77.2767 42.0231 81.2971C41.9905 86.7437 43.8324 92.3082 47.7052 96.2302C47.2068 96.0404 46.7025 95.866 46.1981 95.6916C45.6547 95.5037 45.1108 95.3157 44.5746 95.1084C40.3784 93.4863 36.3996 91.4651 32.9828 88.509C33.1706 87.1526 33.9615 83.8586 34.8896 82.9124C35.0906 82.7077 35.319 82.5239 35.5457 82.3415C35.642 82.264 35.7382 82.1867 35.8316 82.1082C36.445 81.593 37.0639 81.0462 37.5939 80.4452C40.1026 77.6001 41.1073 74.0556 41.5906 70.3696L41.5938 70.3449C41.7297 69.3102 41.8771 68.1877 41.8134 67.1466C41.5304 67.811 41.3722 68.5683 41.2192 69.3005C41.1688 69.5422 41.1188 69.7812 41.0652 70.0131L41.0308 70.1618C40.4499 72.676 39.8615 75.223 38.5367 77.4691C37.9356 78.4881 37.223 79.4124 36.3925 80.2547C36.1428 80.508 35.7846 80.8175 35.3999 81.15C34.5891 81.8507 33.6603 82.6533 33.3815 83.2445C32.848 84.3753 32.5517 85.6879 32.2664 86.9524C32.1812 87.3299 32.0969 87.7034 32.0076 88.0663C31.9732 88.206 31.9414 88.3639 31.9082 88.5291C31.8118 89.0078 31.703 89.5482 31.4818 89.8903C30.7786 89.6656 30.5914 88.6563 30.4368 87.8224C30.3403 87.302 30.2565 86.8499 30.0678 86.6997C29.9437 86.7032 29.9297 86.7194 29.8477 86.8136L29.8462 86.8154C29.5144 87.1968 29.7056 88.2247 29.8197 88.8382C29.837 88.9311 29.8525 89.0147 29.8642 89.0849L29.8685 89.111C29.8945 89.2652 29.9199 89.4162 29.8234 89.5514L29.8075 89.5528C29.7185 89.5607 29.6944 89.5628 29.608 89.5187C29.1858 89.3029 28.7755 88.5127 28.6953 88.0473C28.6661 87.8779 28.6502 87.695 28.6341 87.5095C28.6053 87.1773 28.5757 86.8367 28.4676 86.5504C28.4243 86.4361 28.3965 86.378 28.2833 86.3233C28.279 86.3268 28.2747 86.3301 28.2702 86.3333C28.2658 86.3365 28.2613 86.3397 28.2568 86.3429C28.2389 86.3555 28.2211 86.3681 28.2071 86.3846C28.134 86.4703 28.0894 86.6312 28.0552 86.7548C28.0499 86.7741 28.0448 86.7924 28.0399 86.8093C27.823 87.5626 27.9087 88.1775 28.1015 88.9268C26.6224 86.7682 27.526 83.6 28.2915 80.9157C28.5023 80.1766 28.7027 79.4742 28.8399 78.8396C29.2369 77.0039 29.4655 75.1817 29.3894 73.3005C29.2664 70.2558 28.4415 66.4617 26.1255 64.3261C26.2889 64.9261 26.541 65.5038 26.7931 66.0814C26.9845 66.52 27.1759 66.9586 27.3285 67.4069C28.4278 70.637 28.8131 74.4911 28.0124 77.83C22.4777 72.0564 17.7499 66.1223 16.1147 58.0741C15.8511 56.7763 15.7005 55.4656 15.5501 54.1556C15.3982 52.833 15.2463 51.511 14.9782 50.2035C17.8722 50.6954 20.7077 50.903 23.639 50.7735C23.9318 52.2114 24.1545 53.6196 24.3246 55.0766C24.5042 53.6349 24.3026 52.1538 24.051 50.7327C25.7457 50.5598 27.3559 50.3188 28.9849 49.8087C29.7065 51.1401 30.0264 52.5913 30.2663 54.0709C30.3558 52.4992 30.0297 51.1189 29.4354 49.6727C30.1346 49.4105 30.8278 49.1433 31.5018 48.8207C34.2608 47.5004 36.9461 45.3829 37.9804 42.4047C38.3833 41.2446 38.6379 39.6585 38.0656 38.5141C37.6627 37.7082 36.9561 37.1141 36.1055 36.8316C36.159 36.9092 36.2116 36.9851 36.2631 37.0594C37.0911 38.2539 37.6485 39.058 37.4141 40.6453C37.087 42.8593 35.6506 44.9188 33.8782 46.2402C33.7609 45.9489 33.6308 45.6597 33.4882 45.3799C32.0991 42.6554 29.1702 40.7939 26.3411 39.8603C23.9379 39.0671 19.2752 38.3788 17.0104 39.5234C17.3794 39.5074 17.7492 39.4863 18.1193 39.4652C18.8747 39.422 19.6319 39.3788 20.3854 39.3786C22.9091 39.378 25.5544 39.8891 27.8467 40.9542C29.8622 41.8907 31.7164 43.2416 33.0389 45.0468L33.079 45.1015C33.3013 45.4042 33.5699 45.7698 33.6862 46.1199C33.6876 46.124 33.689 46.1281 33.6904 46.1322C33.692 46.1366 33.6936 46.1411 33.6952 46.1455C33.7137 46.1972 33.7315 46.2469 33.7007 46.2981C33.4057 46.787 31.0637 47.9482 30.5156 48.1845C30.0053 48.4045 29.4801 48.5815 28.9537 48.7587C28.5194 48.016 27.9818 47.3168 27.4241 46.6621C25.0796 43.9098 20.8275 40.9096 17.1492 40.6104C17.8163 40.9555 18.5161 41.2358 19.216 41.5161C19.8272 41.7608 20.4385 42.0057 21.0284 42.2938C23.4556 43.4795 25.6577 45.1529 27.3899 47.2263C27.8199 47.741 28.2527 48.2629 28.5156 48.8852C26.9674 49.3573 25.3815 49.6482 23.7673 49.7528C23.081 47.8055 22.221 46.3673 20.9754 44.737C21.2781 44.3185 21.5429 43.8872 21.7908 43.4341C21.4447 43.6199 21.123 43.8594 20.8052 44.096C20.7183 44.1606 20.6311 44.2256 20.5444 44.2886C19.5257 43.198 18.4839 42.382 17.0269 41.9698C18.1889 42.7738 19.2116 43.5844 20.2252 44.5755C19.1107 45.4451 17.6731 46.1592 16.2401 46.2239C15.1726 46.2723 14.1371 45.8408 13.3596 45.1173C12.4244 44.2469 12.1842 43.2219 12.1461 41.9875C13.4099 41.456 14.8644 40.3811 15.4583 39.1092C15.6888 38.6158 15.7641 37.9448 15.5588 37.4315C15.3302 36.8602 14.7474 36.4907 14.1985 36.2681C12.8268 35.7116 10.7523 35.4429 9.35713 36.059C8.82882 36.2922 8.39058 36.6809 8.18866 37.2328C7.9314 37.9359 8.11542 38.8994 8.43031 39.5645C9.01111 40.791 10.1176 41.5797 11.361 42.0272C11.3731 42.3189 11.4223 42.6282 11.4719 42.9396C11.5438 43.3908 11.6164 43.8463 11.5775 44.2589C11.5451 44.6028 11.3498 44.9473 11.0859 45.167C10.6988 45.4895 10.1479 45.5772 9.65889 45.5309C8.69922 45.4401 7.76243 44.8128 7.15132 44.0939C7.27949 43.6376 7.46604 43.1818 7.6498 42.7329C7.72222 42.556 7.79421 42.3801 7.86202 42.2057C7.43991 42.6498 7.08992 43.0675 6.80667 43.6118C6.44799 43.0621 6.21565 42.4242 6.01672 41.8027C6.19744 41.6665 6.41248 41.5188 6.63813 41.3639C7.18146 40.9908 7.78632 40.5754 8.12172 40.1754C7.28285 40.3735 6.56772 40.7881 5.86968 41.2815C5.69868 40.6555 5.60199 40.0409 5.55693 39.3941C6.07452 39.3257 6.61161 39.3072 7.14588 39.2888C7.4581 39.2781 7.76964 39.2674 8.07549 39.2468C7.24582 38.9032 6.446 38.8759 5.56176 38.8625C5.61806 37.9346 5.74466 37.0345 6.06301 36.1565C6.69308 34.4188 8.0251 32.8078 9.36401 31.1885C10.427 29.9028 11.4944 28.6119 12.2183 27.2482C12.2248 27.2359 12.2314 27.2234 12.2383 27.2107C12.244 27.2 12.2499 27.1891 12.2558 27.1781C12.4036 26.9035 12.603 26.5332 12.5115 26.239C12.4161 26.0986 12.2863 26.0353 12.1419 25.9649C12.1205 25.9544 12.0987 25.9438 12.0767 25.9328C12.779 24.682 13.7261 23.583 14.8764 22.7246C17.847 20.5076 22.0743 19.8571 25.7164 20.031C26.866 20.0859 28.0011 20.2514 29.1385 20.4172L29.2698 20.4364C29.1695 20.6312 29.0655 20.8237 28.9615 21.0163C28.8266 21.2661 28.6916 21.516 28.5646 21.7708C29.3006 21.395 29.8928 20.902 30.4723 20.4195C31.431 19.6215 32.3553 18.852 33.8399 18.6881C34.4871 18.6212 35.1674 18.752 35.7294 19.0801C36.5457 19.5565 37.0885 20.3833 37.3127 21.2911C37.716 22.9256 37.2547 24.6186 36.4552 26.0558C36.2859 26.3602 36.0963 26.6537 35.9068 26.9471C35.7823 27.1397 35.6577 27.3326 35.539 27.5283C36.5518 26.8781 37.1224 26.1813 37.7018 25.1335C39.1051 27.1419 40.2786 30.1356 41.1516 32.4285C41.2387 32.6574 41.3245 32.8855 41.41 33.1126C42.2927 35.4586 43.136 37.6997 44.9543 39.5669C47.1089 41.7794 49.4495 42.6285 52.1057 43.5921C52.5948 43.7695 53.0948 43.9509 53.606 44.1453C60.8483 46.8992 66.267 51.4752 70.0677 58.2307C74.4496 66.0192 76.6487 78.2193 74.2061 86.9204C73.3503 89.9692 71.6703 93.368 69.4246 96.0867C70.0482 95.8235 70.6654 95.548 71.2758 95.2606C71.433 95.0135 71.5941 94.7692 71.7552 94.5249C72.0465 94.0833 72.3378 93.6417 72.6051 93.1838C73.7278 91.2612 74.5235 89.2295 75.1538 87.1009C75.4421 86.9065 75.7504 86.7414 76.0588 86.5761C76.3129 86.44 76.5671 86.3038 76.8103 86.1512C78.008 85.3995 79.0616 84.394 79.9745 83.3185C82.0791 80.8392 83.356 77.8152 83.9651 74.6407C85.2166 68.1189 82.8232 61.3133 79.4608 55.7825C78.6694 54.4809 77.8248 53.2063 76.9797 51.9312C75.5593 49.7879 74.1379 47.643 72.9667 45.3652L72.9205 45.2754C72.1632 43.8032 71.3171 42.1585 71.195 40.4929C71.1456 39.8196 71.2838 39.1699 71.7467 38.6565C72.4576 37.8682 73.5491 37.7072 74.5509 37.649C76.6768 37.6768 78.6806 38.2265 80.6517 38.9782C87.3316 41.5255 93.9962 47.4568 96.9203 54.024C97.8975 56.2184 98.5131 58.5346 98.8095 60.8954C99.5889 57.3881 100 53.742 100 50C100 22.3858 77.6142 0 50 0C22.3858 0 0 22.3858 0 50C0 67.6209 9.11511 83.1129 22.8874 92.0179C23.1273 91.9267 23.3653 91.8284 23.5995 91.7159C25.0803 91.0046 26.1165 90.0872 26.6607 88.5177C26.8144 88.6802 26.9233 88.8678 27.0315 89.0543C27.2029 89.3496 27.3728 89.6424 27.7173 89.8293C27.865 89.9093 28.0347 89.9514 28.2042 89.9934C28.3293 90.0244 28.4543 90.0553 28.5702 90.1015C28.7629 90.1784 28.9232 90.2577 29.069 90.3299C29.5122 90.5492 29.8216 90.7023 30.5004 90.519L30.5216 90.5334C30.653 90.623 30.7862 90.7138 30.9303 90.7817C31.2001 90.9087 31.5337 90.9552 31.8151 90.8379C32.2887 90.6403 32.5012 90.1255 32.6871 89.675L32.707 89.6267C32.718 89.6003 32.7288 89.5742 32.7397 89.5484C33.6601 90.3819 34.7035 91.1387 35.7678 91.7758C35.2232 92.7787 34.7905 93.734 34.4645 94.8318C33.6821 94.891 32.8794 95.0443 32.092 95.1947C31.8293 95.2449 31.5684 95.2947 31.3105 95.3406C30.7334 95.4433 30.1556 95.5464 29.5782 95.6529C35.8135 98.4464 42.7253 100 50 100ZM20.6501 45.0669C21.8369 46.3619 22.7597 48.113 23.3181 49.7716C20.8919 49.9663 18.489 49.6849 16.0847 49.3779C15.8983 49.3541 15.7093 49.3325 15.5191 49.3108C14.8712 49.2369 14.21 49.1614 13.5923 48.9914C13.3156 48.9151 13.0542 48.7952 12.7938 48.6758L12.7367 48.6496C11.7378 48.1301 11.0245 47.4838 10.6336 46.4151C11.3344 46.1501 11.7523 45.8259 12.2336 45.2506C12.2935 45.3253 12.3556 45.3977 12.4205 45.4683C13.3033 46.4287 14.5419 47.1264 15.8637 47.1664C17.7432 47.2232 19.3242 46.3185 20.6501 45.0669ZM14.5707 37.6115C14.7366 37.8152 14.7891 38.0611 14.7498 38.3182C14.598 39.3135 13.439 40.2231 12.6861 40.7772C12.3453 40.9919 12.0081 41.1588 11.6278 41.2918C11.2679 41.1356 10.9174 40.9375 10.5979 40.7094C9.81624 40.152 9.08229 39.3002 8.93398 38.3218C8.88317 37.9862 8.91592 37.6311 9.13204 37.3568C9.47994 36.9153 10.1045 36.8252 10.6263 36.7514C11.0144 36.7094 11.4191 36.7116 11.808 36.7385C12.5873 36.7924 14.0438 36.9641 14.5707 37.6115ZM10.5973 27.9227C10.5599 27.9216 10.5225 27.9206 10.4854 27.9163C10.3408 27.8999 10.1931 27.8305 10.1139 27.7036C10.0295 27.5683 10.039 27.4192 10.0917 27.275C10.1905 27.0047 10.3626 26.916 10.6129 26.7991L10.6385 26.8033C10.7703 26.825 10.9187 26.8493 11.0114 26.9532C11.0937 27.0455 11.114 27.1615 11.0951 27.2802C11.0519 27.5499 10.8304 27.7732 10.6185 27.9233L10.5973 27.9227ZM18.5478 18.3356C19.4477 18.2976 20.3567 18.7367 21.0101 19.3282C19.8803 19.5234 18.8006 19.7655 17.7147 20.1403C17.0826 20.3686 16.476 20.6439 15.8688 20.9303C16.03 20.4339 16.2037 19.9643 16.513 19.5386C17.0188 18.8422 17.709 18.4653 18.5478 18.3356ZM26.1719 87.1616C25.8725 86.9225 25.6504 86.697 25.4551 86.3672C25.104 85.6291 25.137 84.9067 25.1732 84.1145L25.1747 84.0831C25.1758 84.0579 25.1776 84.0317 25.1797 84.0048C25.1812 83.9861 25.1828 83.9669 25.1845 83.9476C25.1969 83.8008 25.2105 83.6405 25.1705 83.5153C25.1526 83.4595 25.126 83.448 25.0859 83.4306C25.0746 83.4258 25.0622 83.4204 25.0487 83.4135L25.0302 83.4161L25.0097 83.4184C24.962 83.4237 24.9273 83.4276 24.8835 83.4683C24.4189 83.9001 24.4643 85.3723 24.4877 86.1315C24.4901 86.2112 24.4924 86.283 24.4937 86.345C24.4281 86.2841 24.3636 86.222 24.3034 86.1556C23.6227 85.4045 23.6797 84.6385 23.7422 83.8C23.7621 83.5328 23.7825 83.2582 23.7798 82.9744C23.7737 82.3217 23.6505 81.682 23.4536 81.061C23.1244 80.0236 22.6438 79.0642 22.1606 78.0998C22.023 77.825 21.8851 77.5498 21.7504 77.2723C20.373 74.4327 19.0831 71.2761 18.9138 68.0827C19.1242 68.3013 19.3048 68.6125 19.4761 68.9075C19.5539 69.0415 19.6298 69.1722 19.7056 69.2893C20.2327 70.1035 20.7688 70.9263 21.3571 71.6979C23.3403 74.299 25.5233 76.6439 27.7775 79.0068C27.6878 79.6647 27.4793 80.3071 27.2719 80.9464C27.1643 81.278 27.0569 81.6087 26.9666 81.9404C26.492 83.6827 26.2644 85.3602 26.1719 87.1616Z" fill="#50BF56"></path><path fill-rule="evenodd" clip-rule="evenodd" d="M27.3445 31.2461C27.0618 31.8498 26.625 32.2021 26.0086 32.4179C25.6041 32.5055 25.2079 32.4812 24.8314 32.3007C24.3457 32.0678 24.0066 31.5895 23.8324 31.0915C23.5776 30.3627 23.638 29.4851 23.9993 28.8013C24.2915 28.2485 24.7126 27.9428 25.2974 27.7638C25.6579 27.7419 25.9476 27.7518 26.2892 27.8952C26.8205 28.1181 27.2132 28.59 27.4178 29.1202C27.6783 29.795 27.651 30.5913 27.3445 31.2461ZM25.0592 28.7424C25.1862 28.7356 25.3181 28.7286 25.441 28.7624C25.6102 28.809 25.7816 28.934 25.8625 29.0924C25.9357 29.2356 25.9548 29.3813 25.9012 29.5336C25.8183 29.7689 25.645 29.883 25.4341 29.995C25.3436 30.0085 25.2592 30.0128 25.1681 30.003C24.9784 29.9826 24.8064 29.8944 24.6955 29.7355C24.5988 29.5966 24.5701 29.4269 24.6023 29.2619C24.6521 29.0068 24.8081 28.8806 25.0156 28.7447C25.03 28.744 25.0446 28.7432 25.0592 28.7424Z" fill="#50BF56"></path><path d="M34.355 25.0267C34.8006 24.6323 35.2448 24.2362 35.5588 23.7241C35.9655 23.0605 36.0365 22.4181 35.8632 21.6717C35.7053 21.3183 35.5531 21.0288 35.265 20.7592C34.8796 20.3985 34.3748 20.2064 33.8466 20.2318C32.8215 20.2813 31.9419 21.0698 31.3899 21.8764C31.3201 21.9784 31.2575 22.0899 31.1946 22.2019C31.092 22.3848 30.9886 22.5691 30.8519 22.7155C30.8497 22.7081 30.8474 22.7008 30.845 22.6934C30.8404 22.679 30.8357 22.6646 30.8326 22.6498C30.7484 22.2569 31.0508 21.7125 31.2636 21.3869C31.8136 20.5453 32.6655 20.0661 33.6344 19.8699C34.0301 19.8384 34.4007 19.8853 34.7751 20.0215C35.3822 20.2426 35.8696 20.6902 36.1265 21.2846C36.4204 21.9648 36.38 22.7546 36.0983 23.4315C35.7574 24.251 35.1555 24.6988 34.355 25.0267Z" fill="#50BF56"></path></svg></g></g><defs><clipPath id="SvgjsClipPath1022"><rect width="1000" height="1000" x="0" y="0" rx="350" ry="350"></rect></clipPath></defs></svg></g><g id="dark-icon"><svg xmlns="http://www.w3.org/2000/svg" version="1.1" xmlns:xlink="http://www.w3.org/1999/xlink" width="1000" height="1000"><g clip-path="url(#SvgjsClipPath1023)"><rect width="1000" height="1000" fill="#0f1a0f"></rect><g transform="matrix(7,0,0,7,150,150)"><svg xmlns="http://www.w3.org/2000/svg" width="100" height="100" viewBox="0 0 100 100" fill="none"><path fill-rule="evenodd" clip-rule="evenodd" d="M50 100C51.6293 100 53.2404 99.9221 54.8298 99.7697C52.2162 98.7323 49.8832 97.2978 47.913 95.0499C44.3538 90.9889 42.6936 85.5568 43.0609 80.1944C43.313 76.5147 44.7214 73.2025 47.5467 70.7663C50.1704 68.5039 53.7088 67.1483 57.163 67.0416C57.8544 67.0202 58.5201 67.0794 59.1957 67.1394C59.4098 67.1585 59.6257 67.1777 59.843 67.1943L59.8323 67.142C59.1189 66.6127 57.2328 66.422 56.3476 66.4086C52.5997 66.3526 48.8932 68.0231 46.2342 70.6295C43.3168 73.4889 42.0471 77.2767 42.0231 81.2971C41.9905 86.7437 43.8324 92.3082 47.7052 96.2302C47.2068 96.0404 46.7025 95.866 46.1981 95.6916C45.6547 95.5037 45.1108 95.3157 44.5746 95.1084C40.3784 93.4863 36.3996 91.4651 32.9828 88.509C33.1706 87.1526 33.9615 83.8586 34.8896 82.9124C35.0906 82.7077 35.319 82.5239 35.5457 82.3415C35.642 82.264 35.7382 82.1867 35.8316 82.1082C36.445 81.593 37.0639 81.0462 37.5939 80.4452C40.1026 77.6001 41.1073 74.0556 41.5906 70.3696L41.5938 70.3449C41.7297 69.3102 41.8771 68.1877 41.8134 67.1466C41.5304 67.811 41.3722 68.5683 41.2192 69.3005C41.1688 69.5422 41.1188 69.7812 41.0652 70.0131L41.0308 70.1618C40.4499 72.676 39.8615 75.223 38.5367 77.4691C37.9356 78.4881 37.223 79.4124 36.3925 80.2547C36.1428 80.508 35.7846 80.8175 35.3999 81.15C34.5891 81.8507 33.6603 82.6533 33.3815 83.2445C32.848 84.3753 32.5517 85.6879 32.2664 86.9524C32.1812 87.3299 32.0969 87.7034 32.0076 88.0663C31.9732 88.206 31.9414 88.3639 31.9082 88.5291C31.8118 89.0078 31.703 89.5482 31.4818 89.8903C30.7786 89.6656 30.5914 88.6563 30.4368 87.8224C30.3403 87.302 30.2565 86.8499 30.0678 86.6997C29.9437 86.7032 29.9297 86.7194 29.8477 86.8136L29.8462 86.8154C29.5144 87.1968 29.7056 88.2247 29.8197 88.8382C29.837 88.9311 29.8525 89.0147 29.8642 89.0849L29.8685 89.111C29.8945 89.2652 29.9199 89.4162 29.8234 89.5514L29.8075 89.5528C29.7185 89.5607 29.6944 89.5628 29.608 89.5187C29.1858 89.3029 28.7755 88.5127 28.6953 88.0473C28.6661 87.8779 28.6502 87.695 28.6341 87.5095C28.6053 87.1773 28.5757 86.8367 28.4676 86.5504C28.4243 86.4361 28.3965 86.378 28.2833 86.3233C28.279 86.3268 28.2747 86.3301 28.2702 86.3333C28.2658 86.3365 28.2613 86.3397 28.2568 86.3429C28.2389 86.3555 28.2211 86.3681 28.2071 86.3846C28.134 86.4703 28.0894 86.6312 28.0552 86.7548C28.0499 86.7741 28.0448 86.7924 28.0399 86.8093C27.823 87.5626 27.9087 88.1775 28.1015 88.9268C26.6224 86.7682 27.526 83.6 28.2915 80.9157C28.5023 80.1766 28.7027 79.4742 28.8399 78.8396C29.2369 77.0039 29.4655 75.1817 29.3894 73.3005C29.2664 70.2558 28.4415 66.4617 26.1255 64.3261C26.2889 64.9261 26.541 65.5038 26.7931 66.0814C26.9845 66.52 27.1759 66.9586 27.3285 67.4069C28.4278 70.637 28.8131 74.4911 28.0124 77.83C22.4777 72.0564 17.7499 66.1223 16.1147 58.0741C15.8511 56.7763 15.7005 55.4656 15.5501 54.1556C15.3982 52.833 15.2463 51.511 14.9782 50.2035C17.8722 50.6954 20.7077 50.903 23.639 50.7735C23.9318 52.2114 24.1545 53.6196 24.3246 55.0766C24.5042 53.6349 24.3026 52.1538 24.051 50.7327C25.7457 50.5598 27.3559 50.3188 28.9849 49.8087C29.7065 51.1401 30.0264 52.5913 30.2663 54.0709C30.3558 52.4992 30.0297 51.1189 29.4354 49.6727C30.1346 49.4105 30.8278 49.1433 31.5018 48.8207C34.2608 47.5004 36.9461 45.3829 37.9804 42.4047C38.3833 41.2446 38.6379 39.6585 38.0656 38.5141C37.6627 37.7082 36.9561 37.1141 36.1055 36.8316C36.159 36.9092 36.2116 36.9851 36.2631 37.0594C37.0911 38.2539 37.6485 39.058 37.4141 40.6453C37.087 42.8593 35.6506 44.9188 33.8782 46.2402C33.7609 45.9489 33.6308 45.6597 33.4882 45.3799C32.0991 42.6554 29.1702 40.7939 26.3411 39.8603C23.9379 39.0671 19.2752 38.3788 17.0104 39.5234C17.3794 39.5074 17.7492 39.4863 18.1193 39.4652C18.8747 39.422 19.6319 39.3788 20.3854 39.3786C22.9091 39.378 25.5544 39.8891 27.8467 40.9542C29.8622 41.8907 31.7164 43.2416 33.0389 45.0468L33.079 45.1015C33.3013 45.4042 33.5699 45.7698 33.6862 46.1199C33.6876 46.124 33.689 46.1281 33.6904 46.1322C33.692 46.1366 33.6936 46.1411 33.6952 46.1455C33.7137 46.1972 33.7315 46.2469 33.7007 46.2981C33.4057 46.787 31.0637 47.9482 30.5156 48.1845C30.0053 48.4045 29.4801 48.5815 28.9537 48.7587C28.5194 48.016 27.9818 47.3168 27.4241 46.6621C25.0796 43.9098 20.8275 40.9096 17.1492 40.6104C17.8163 40.9555 18.5161 41.2358 19.216 41.5161C19.8272 41.7608 20.4385 42.0057 21.0284 42.2938C23.4556 43.4795 25.6577 45.1529 27.3899 47.2263C27.8199 47.741 28.2527 48.2629 28.5156 48.8852C26.9674 49.3573 25.3815 49.6482 23.7673 49.7528C23.081 47.8055 22.221 46.3673 20.9754 44.737C21.2781 44.3185 21.5429 43.8872 21.7908 43.4341C21.4447 43.6199 21.123 43.8594 20.8052 44.096C20.7183 44.1606 20.6311 44.2256 20.5444 44.2886C19.5257 43.198 18.4839 42.382 17.0269 41.9698C18.1889 42.7738 19.2116 43.5844 20.2252 44.5755C19.1107 45.4451 17.6731 46.1592 16.2401 46.2239C15.1726 46.2723 14.1371 45.8408 13.3596 45.1173C12.4244 44.2469 12.1842 43.2219 12.1461 41.9875C13.4099 41.456 14.8644 40.3811 15.4583 39.1092C15.6888 38.6158 15.7641 37.9448 15.5588 37.4315C15.3302 36.8602 14.7474 36.4907 14.1985 36.2681C12.8268 35.7116 10.7523 35.4429 9.35713 36.059C8.82882 36.2922 8.39058 36.6809 8.18866 37.2328C7.9314 37.9359 8.11542 38.8994 8.43031 39.5645C9.01111 40.791 10.1176 41.5797 11.361 42.0272C11.3731 42.3189 11.4223 42.6282 11.4719 42.9396C11.5438 43.3908 11.6164 43.8463 11.5775 44.2589C11.5451 44.6028 11.3498 44.9473 11.0859 45.167C10.6988 45.4895 10.1479 45.5772 9.65889 45.5309C8.69922 45.4401 7.76243 44.8128 7.15132 44.0939C7.27949 43.6376 7.46604 43.1818 7.6498 42.7329C7.72222 42.556 7.79421 42.3801 7.86202 42.2057C7.43991 42.6498 7.08992 43.0675 6.80667 43.6118C6.44799 43.0621 6.21565 42.4242 6.01672 41.8027C6.19744 41.6665 6.41248 41.5188 6.63813 41.3639C7.18146 40.9908 7.78632 40.5754 8.12172 40.1754C7.28285 40.3735 6.56772 40.7881 5.86968 41.2815C5.69868 40.6555 5.60199 40.0409 5.55693 39.3941C6.07452 39.3257 6.61161 39.3072 7.14588 39.2888C7.4581 39.2781 7.76964 39.2674 8.07549 39.2468C7.24582 38.9032 6.446 38.8759 5.56176 38.8625C5.61806 37.9346 5.74466 37.0345 6.06301 36.1565C6.69308 34.4188 8.0251 32.8078 9.36401 31.1885C10.427 29.9028 11.4944 28.6119 12.2183 27.2482C12.2248 27.2359 12.2314 27.2234 12.2383 27.2107C12.244 27.2 12.2499 27.1891 12.2558 27.1781C12.4036 26.9035 12.603 26.5332 12.5115 26.239C12.4161 26.0986 12.2863 26.0353 12.1419 25.9649C12.1205 25.9544 12.0987 25.9438 12.0767 25.9328C12.779 24.682 13.7261 23.583 14.8764 22.7246C17.847 20.5076 22.0743 19.8571 25.7164 20.031C26.866 20.0859 28.0011 20.2514 29.1385 20.4172L29.2698 20.4364C29.1695 20.6312 29.0655 20.8237 28.9615 21.0163C28.8266 21.2661 28.6916 21.516 28.5646 21.7708C29.3006 21.395 29.8928 20.902 30.4723 20.4195C31.431 19.6215 32.3553 18.852 33.8399 18.6881C34.4871 18.6212 35.1674 18.752 35.7294 19.0801C36.5457 19.5565 37.0885 20.3833 37.3127 21.2911C37.716 22.9256 37.2547 24.6186 36.4552 26.0558C36.2859 26.3602 36.0963 26.6537 35.9068 26.9471C35.7823 27.1397 35.6577 27.3326 35.539 27.5283C36.5518 26.8781 37.1224 26.1813 37.7018 25.1335C39.1051 27.1419 40.2786 30.1356 41.1516 32.4285C41.2387 32.6574 41.3245 32.8855 41.41 33.1126C42.2927 35.4586 43.136 37.6997 44.9543 39.5669C47.1089 41.7794 49.4495 42.6285 52.1057 43.5921C52.5948 43.7695 53.0948 43.9509 53.606 44.1453C60.8483 46.8992 66.267 51.4752 70.0677 58.2307C74.4496 66.0192 76.6487 78.2193 74.2061 86.9204C73.3503 89.9692 71.6703 93.368 69.4246 96.0867C70.0482 95.8235 70.6654 95.548 71.2758 95.2606C71.433 95.0135 71.5941 94.7692 71.7552 94.5249C72.0465 94.0833 72.3378 93.6417 72.6051 93.1838C73.7278 91.2612 74.5235 89.2295 75.1538 87.1009C75.4421 86.9065 75.7504 86.7414 76.0588 86.5761C76.3129 86.44 76.5671 86.3038 76.8103 86.1512C78.008 85.3995 79.0616 84.394 79.9745 83.3185C82.0791 80.8392 83.356 77.8152 83.9651 74.6407C85.2166 68.1189 82.8232 61.3133 79.4608 55.7825C78.6694 54.4809 77.8248 53.2063 76.9797 51.9312C75.5593 49.7879 74.1379 47.643 72.9667 45.3652L72.9205 45.2754C72.1632 43.8032 71.3171 42.1585 71.195 40.4929C71.1456 39.8196 71.2838 39.1699 71.7467 38.6565C72.4576 37.8682 73.5491 37.7072 74.5509 37.649C76.6768 37.6768 78.6806 38.2265 80.6517 38.9782C87.3316 41.5255 93.9962 47.4568 96.9203 54.024C97.8975 56.2184 98.5131 58.5346 98.8095 60.8954C99.5889 57.3881 100 53.742 100 50C100 22.3858 77.6142 0 50 0C22.3858 0 0 22.3858 0 50C0 67.6209 9.11511 83.1129 22.8874 92.0179C23.1273 91.9267 23.3653 91.8284 23.5995 91.7159C25.0803 91.0046 26.1165 90.0872 26.6607 88.5177C26.8144 88.6802 26.9233 88.8678 27.0315 89.0543C27.2029 89.3496 27.3728 89.6424 27.7173 89.8293C27.865 89.9093 28.0347 89.9514 28.2042 89.9934C28.3293 90.0244 28.4543 90.0553 28.5702 90.1015C28.7629 90.1784 28.9232 90.2577 29.069 90.3299C29.5122 90.5492 29.8216 90.7023 30.5004 90.519L30.5216 90.5334C30.653 90.623 30.7862 90.7138 30.9303 90.7817C31.2001 90.9087 31.5337 90.9552 31.8151 90.8379C32.2887 90.6403 32.5012 90.1255 32.6871 89.675L32.707 89.6267C32.718 89.6003 32.7288 89.5742 32.7397 89.5484C33.6601 90.3819 34.7035 91.1387 35.7678 91.7758C35.2232 92.7787 34.7905 93.734 34.4645 94.8318C33.6821 94.891 32.8794 95.0443 32.092 95.1947C31.8293 95.2449 31.5684 95.2947 31.3105 95.3406C30.7334 95.4433 30.1556 95.5464 29.5782 95.6529C35.8135 98.4464 42.7253 100 50 100ZM20.6501 45.0669C21.8369 46.3619 22.7597 48.113 23.3181 49.7716C20.8919 49.9663 18.489 49.6849 16.0847 49.3779C15.8983 49.3541 15.7093 49.3325 15.5191 49.3108C14.8712 49.2369 14.21 49.1614 13.5923 48.9914C13.3156 48.9151 13.0542 48.7952 12.7938 48.6758L12.7367 48.6496C11.7378 48.1301 11.0245 47.4838 10.6336 46.4151C11.3344 46.1501 11.7523 45.8259 12.2336 45.2506C12.2935 45.3253 12.3556 45.3977 12.4205 45.4683C13.3033 46.4287 14.5419 47.1264 15.8637 47.1664C17.7432 47.2232 19.3242 46.3185 20.6501 45.0669ZM14.5707 37.6115C14.7366 37.8152 14.7891 38.0611 14.7498 38.3182C14.598 39.3135 13.439 40.2231 12.6861 40.7772C12.3453 40.9919 12.0081 41.1588 11.6278 41.2918C11.2679 41.1356 10.9174 40.9375 10.5979 40.7094C9.81624 40.152 9.08229 39.3002 8.93398 38.3218C8.88317 37.9862 8.91592 37.6311 9.13204 37.3568C9.47994 36.9153 10.1045 36.8252 10.6263 36.7514C11.0144 36.7094 11.4191 36.7116 11.808 36.7385C12.5873 36.7924 14.0438 36.9641 14.5707 37.6115ZM10.5973 27.9227C10.5599 27.9216 10.5225 27.9206 10.4854 27.9163C10.3408 27.8999 10.1931 27.8305 10.1139 27.7036C10.0295 27.5683 10.039 27.4192 10.0917 27.275C10.1905 27.0047 10.3626 26.916 10.6129 26.7991L10.6385 26.8033C10.7703 26.825 10.9187 26.8493 11.0114 26.9532C11.0937 27.0455 11.114 27.1615 11.0951 27.2802C11.0519 27.5499 10.8304 27.7732 10.6185 27.9233L10.5973 27.9227ZM18.5478 18.3356C19.4477 18.2976 20.3567 18.7367 21.0101 19.3282C19.8803 19.5234 18.8006 19.7655 17.7147 20.1403C17.0826 20.3686 16.476 20.6439 15.8688 20.9303C16.03 20.4339 16.2037 19.9643 16.513 19.5386C17.0188 18.8422 17.709 18.4653 18.5478 18.3356ZM26.1719 87.1616C25.8725 86.9225 25.6504 86.697 25.4551 86.3672C25.104 85.6291 25.137 84.9067 25.1732 84.1145L25.1747 84.0831C25.1758 84.0579 25.1776 84.0317 25.1797 84.0048C25.1812 83.9861 25.1828 83.9669 25.1845 83.9476C25.1969 83.8008 25.2105 83.6405 25.1705 83.5153C25.1526 83.4595 25.126 83.448 25.0859 83.4306C25.0746 83.4258 25.0622 83.4204 25.0487 83.4135L25.0302 83.4161L25.0097 83.4184C24.962 83.4237 24.9273 83.4276 24.8835 83.4683C24.4189 83.9001 24.4643 85.3723 24.4877 86.1315C24.4901 86.2112 24.4924 86.283 24.4937 86.345C24.4281 86.2841 24.3636 86.222 24.3034 86.1556C23.6227 85.4045 23.6797 84.6385 23.7422 83.8C23.7621 83.5328 23.7825 83.2582 23.7798 82.9744C23.7737 82.3217 23.6505 81.682 23.4536 81.061C23.1244 80.0236 22.6438 79.0642 22.1606 78.0998C22.023 77.825 21.8851 77.5498 21.7504 77.2723C20.373 74.4327 19.0831 71.2761 18.9138 68.0827C19.1242 68.3013 19.3048 68.6125 19.4761 68.9075C19.5539 69.0415 19.6298 69.1722 19.7056 69.2893C20.2327 70.1035 20.7688 70.9263 21.3571 71.6979C23.3403 74.299 25.5233 76.6439 27.7775 79.0068C27.6878 79.6647 27.4793 80.3071 27.2719 80.9464C27.1643 81.278 27.0569 81.6087 26.9666 81.9404C26.492 83.6827 26.2644 85.3602 26.1719 87.1616Z" fill="#50BF56"></path><path fill-rule="evenodd" clip-rule="evenodd" d="M27.3445 31.2461C27.0618 31.8498 26.625 32.2021 26.0086 32.4179C25.6041 32.5055 25.2079 32.4812 24.8314 32.3007C24.3457 32.0678 24.0066 31.5895 23.8324 31.0915C23.5776 30.3627 23.638 29.4851 23.9993 28.8013C24.2915 28.2485 24.7126 27.9428 25.2974 27.7638C25.6579 27.7419 25.9476 27.7518 26.2892 27.8952C26.8205 28.1181 27.2132 28.59 27.4178 29.1202C27.6783 29.795 27.651 30.5913 27.3445 31.2461ZM25.0592 28.7424C25.1862 28.7356 25.3181 28.7286 25.441 28.7624C25.6102 28.809 25.7816 28.934 25.8625 29.0924C25.9357 29.2356 25.9548 29.3813 25.9012 29.5336C25.8183 29.7689 25.645 29.883 25.4341 29.995C25.3436 30.0085 25.2592 30.0128 25.1681 30.003C24.9784 29.9826 24.8064 29.8944 24.6955 29.7355C24.5988 29.5966 24.5701 29.4269 24.6023 29.2619C24.6521 29.0068 24.8081 28.8806 25.0156 28.7447C25.03 28.744 25.0446 28.7432 25.0592 28.7424Z" fill="#50BF56"></path><path d="M34.355 25.0267C34.8006 24.6323 35.2448 24.2362 35.5588 23.7241C35.9655 23.0605 36.0365 22.4181 35.8632 21.6717C35.7053 21.3183 35.5531 21.0288 35.265 20.7592C34.8796 20.3985 34.3748 20.2064 33.8466 20.2318C32.8215 20.2813 31.9419 21.0698 31.3899 21.8764C31.3201 21.9784 31.2575 22.0899 31.1946 22.2019C31.092 22.3848 30.9886 22.5691 30.8519 22.7155C30.8497 22.7081 30.8474 22.7008 30.845 22.6934C30.8404 22.679 30.8357 22.6646 30.8326 22.6498C30.7484 22.2569 31.0508 21.7125 31.2636 21.3869C31.8136 20.5453 32.6655 20.0661 33.6344 19.8699C34.0301 19.8384 34.4007 19.8853 34.7751 20.0215C35.3822 20.2426 35.8696 20.6902 36.1265 21.2846C36.4204 21.9648 36.38 22.7546 36.0983 23.4315C35.7574 24.251 35.1555 24.6988 34.355 25.0267Z" fill="#50BF56"></path></svg></g></g><defs><clipPath id="SvgjsClipPath1023"><rect width="1000" height="1000" x="0" y="0" rx="350" ry="350"></rect></clipPath></defs></svg></g></svg>