<svg width="399" height="44" viewBox="0 0 399 44" fill="none" xmlns="http://www.w3.org/2000/svg">
<path d="M2.27997 42.9999C1.87997 42.9999 1.51997 42.8599 1.19997 42.5799C0.879971 42.2599 0.719971 41.8799 0.719971 41.4399V2.5599C0.719971 2.1199 0.879971 1.7599 1.19997 1.4799C1.51997 1.1599 1.87997 0.999902 2.27997 0.999902H18.72C22.6 0.999902 25.96 1.6399 28.8 2.9199C31.64 4.1599 33.88 5.9999 35.52 8.4399C37.16 10.8799 38.04 13.8799 38.16 17.4399C38.24 19.1599 38.28 20.6799 38.28 21.9999C38.28 23.3199 38.24 24.8199 38.16 26.4999C38 30.2599 37.14 33.3599 35.58 35.7999C34.06 38.2399 31.9 40.0599 29.1 41.2599C26.3 42.4199 22.94 42.9999 19.02 42.9999H2.27997ZM13.62 29.5999C13.62 30.72 13.62 31.2801 13.838 31.7079C14.0297 32.0842 14.3357 32.3902 14.712 32.5819C15.1398 32.7999 15.6999 32.7999 16.82 32.7999H18.72C20.04 32.7999 21.16 32.5799 22.08 32.1399C23 31.6999 23.72 31.0199 24.24 30.0999C24.76 29.1399 25.04 27.9199 25.08 26.4399C25.12 25.2799 25.14 24.2399 25.14 23.3199C25.18 22.3999 25.18 21.4799 25.14 20.5599C25.14 19.6399 25.12 18.6199 25.08 17.4999C25 15.2999 24.36 13.6999 23.16 12.6999C22 11.6999 20.42 11.1999 18.42 11.1999H16.82C15.6999 11.1999 15.1398 11.1999 14.712 11.4179C14.3357 11.6096 14.0297 11.9156 13.838 12.2919C13.62 12.7197 13.62 13.2798 13.62 14.3999V29.5999Z" fill="#50BF56"/>
<path d="M41.2162 42.9999C40.9385 42.9999 40.6845 42.9285 40.4544 42.7856C40.409 42.7574 40.5224 42.8278 40.4162 42.7396C40.3847 42.7134 40.1827 42.5114 40.1566 42.4799C40.0683 42.3737 40.1387 42.4871 40.1105 42.4418C39.9677 42.2116 39.8962 41.9577 39.8962 41.6799C39.8962 41.6637 39.8966 41.6476 39.8975 41.6318C39.903 41.5253 39.8891 41.7915 39.9012 41.7053C39.9103 41.6403 39.9301 41.5412 39.9467 41.4777C39.9686 41.3934 40.0287 41.2248 40.1489 40.8876L53.6962 2.8599C53.8162 2.4199 54.0762 1.9999 54.4762 1.5999C54.9162 1.1999 55.4962 0.999902 56.2162 0.999902H67.1962C67.9562 0.999902 68.5362 1.1999 68.9362 1.5999C69.3362 1.9999 69.5962 2.4199 69.7162 2.8599L83.4562 41.2599C83.4962 41.3799 83.5162 41.5199 83.5162 41.6799C83.5162 42.0399 83.3762 42.3599 83.0962 42.6399C82.8562 42.8799 82.5562 42.9999 82.1962 42.9999H72.9562C72.2762 42.9999 71.7762 42.8399 71.4562 42.5199C71.1362 42.1999 70.9162 41.8999 70.7962 41.6199L69.7083 38.672C69.43 37.918 69.2909 37.541 69.0478 37.2631C68.833 37.0175 68.5614 36.8283 68.2567 36.7118C67.9118 36.5799 67.5099 36.5799 66.7062 36.5799H56.7062C55.9025 36.5799 55.5007 36.5799 55.1557 36.7118C54.851 36.8283 54.5795 37.0175 54.3647 37.2631C54.1215 37.541 53.9824 37.918 53.7041 38.672L52.6162 41.6199C52.4962 41.8999 52.2762 42.1999 51.9562 42.5199C51.6762 42.8399 51.1762 42.9999 50.4562 42.9999H41.2162ZM58.6298 22.2026C58.155 23.6463 57.9176 24.3681 58.061 24.9324C58.1865 25.4264 58.4959 25.8538 58.9259 26.1274C59.4172 26.4399 60.177 26.4399 61.6968 26.4399V26.4399C63.2222 26.4399 63.9849 26.4399 64.4769 26.1261C64.9075 25.8514 65.2168 25.4224 65.3412 24.927C65.4833 24.361 65.2421 23.6375 64.7597 22.1903V22.1903C63.8113 19.3452 63.3371 17.9227 62.645 17.546C62.0464 17.2202 61.3231 17.2217 60.7259 17.5498C60.0353 17.9293 59.5668 19.3537 58.6298 22.2026V22.2026Z" fill="#50BF56"/>
<path d="M89.0573 42.9999C88.6573 42.9999 88.2973 42.8599 87.9773 42.5799C87.6573 42.2599 87.4973 41.8799 87.4973 41.4399V2.5599C87.4973 2.1199 87.6573 1.7599 87.9773 1.4799C88.2973 1.1599 88.6573 0.999902 89.0573 0.999902H99.2573C99.6973 0.999902 100.057 1.1599 100.337 1.4799C100.657 1.7599 100.817 2.1199 100.817 2.5599V41.4399C100.817 41.8799 100.657 42.2599 100.337 42.5799C100.057 42.8599 99.6973 42.9999 99.2573 42.9999H89.0573Z" fill="#50BF56"/>
<path d="M109.799 42.9999C109.399 42.9999 109.04 42.8599 108.72 42.5799C108.4 42.2599 108.24 41.8799 108.24 41.4399V2.5599C108.24 2.1199 108.4 1.7599 108.72 1.4799C109.04 1.1599 109.399 0.999902 109.799 0.999902H119.759C120.199 0.999902 120.58 1.1599 120.9 1.4799C121.22 1.7599 121.38 2.1199 121.38 2.5599V29.1199C121.38 30.24 121.38 30.8001 121.597 31.2279C121.789 31.6042 122.095 31.9102 122.472 32.1019C122.899 32.3199 123.459 32.3199 124.58 32.3199H138.719C139.159 32.3199 139.539 32.4799 139.859 32.7999C140.179 33.0799 140.34 33.4399 140.34 33.8799V41.4399C140.34 41.8799 140.179 42.2599 139.859 42.5799C139.539 42.8599 139.159 42.9999 138.719 42.9999H109.799Z" fill="#50BF56"/>
<path d="M151.3 42.9999C150.86 42.9999 150.48 42.8599 150.16 42.5799C149.88 42.2599 149.74 41.8799 149.74 41.4399V29.8645C149.74 29.572 149.74 29.4258 149.719 29.2827C149.701 29.1557 149.67 29.0308 149.628 28.9097C149.58 28.7733 149.512 28.6436 149.377 28.3843L136.06 2.8599C136.054 2.8477 136.048 2.8355 136.042 2.82331C136.021 2.78237 136.011 2.76191 135.975 2.66901C135.962 2.63365 135.906 2.4528 135.898 2.41597C135.875 2.31921 135.893 2.45287 135.885 2.39941C135.882 2.37101 135.88 2.34451 135.88 2.3199C135.88 1.9599 136 1.6599 136.24 1.4199C136.52 1.1399 136.84 0.999902 137.2 0.999902H146.56C147.28 0.999902 147.82 1.1799 148.18 1.5399C148.54 1.8999 148.78 2.1799 148.9 2.3799L153.393 10.8505C154.31 12.5796 154.769 13.4442 155.38 13.727C155.913 13.9734 156.527 13.9734 157.059 13.727C157.671 13.4442 158.13 12.5796 159.047 10.8505L163.54 2.3799C163.62 2.1799 163.84 1.8999 164.2 1.5399C164.56 1.1799 165.1 0.999902 165.82 0.999902H175.24C175.485 0.999902 175.707 1.08217 175.905 1.24672C175.964 1.29545 175.993 1.31982 176.037 1.36104C176.067 1.38904 176.122 1.4452 176.15 1.4755C176.191 1.52012 176.211 1.54537 176.251 1.59589C176.417 1.80175 176.5 2.04309 176.5 2.3199C176.5 2.33801 176.499 2.35715 176.497 2.37731C176.48 2.54182 176.454 2.71201 176.38 2.8599V2.8599L163.005 28.3822C162.869 28.6423 162.801 28.7724 162.753 28.9092C162.71 29.0307 162.679 29.1561 162.661 29.2836C162.64 29.4271 162.64 29.5739 162.64 29.8676V41.4399C162.64 41.8799 162.48 42.2599 162.16 42.5799C161.88 42.8599 161.52 42.9999 161.08 42.9999H151.3Z" fill="#50BF56"/>
<path d="M195.875 43.5999C191.675 43.5999 188.175 43.0199 185.375 41.8599C182.615 40.6599 180.535 39.1199 179.135 37.2399C177.775 35.3199 177.055 33.2999 176.975 31.1799C176.975 30.8199 177.095 30.5199 177.335 30.2799C177.575 30.0399 177.875 29.9199 178.235 29.9199H187.775C188.335 29.9199 188.775 30.0199 189.095 30.2199C189.357 30.351 189.633 30.5359 189.922 30.7746C189.967 30.8111 189.989 30.8294 190.025 30.8627C190.056 30.8912 190.09 30.9242 190.12 30.9546C190.154 30.9903 190.196 31.0382 190.279 31.134C190.601 31.5038 190.966 31.8591 191.375 32.1999C191.855 32.5599 192.475 32.8599 193.235 33.0999C193.995 33.2999 194.875 33.3999 195.875 33.3999C197.715 33.3999 199.135 33.1599 200.135 32.6799C201.135 32.1599 201.635 31.4599 201.635 30.5799C201.635 29.8999 201.355 29.3399 200.795 28.8999C200.275 28.4599 199.375 28.0599 198.095 27.6999C196.815 27.3399 195.075 26.9599 192.875 26.5599C189.795 26.0399 187.135 25.2799 184.895 24.2799C182.655 23.2399 180.935 21.8599 179.735 20.1399C178.575 18.3799 177.995 16.2199 177.995 13.6599C177.995 11.0599 178.715 8.7599 180.155 6.7599C181.635 4.7599 183.675 3.1999 186.275 2.0799C188.915 0.959902 191.975 0.399902 195.455 0.399902C198.335 0.399902 200.875 0.779902 203.075 1.5399C205.315 2.2999 207.195 3.2999 208.715 4.5399C210.235 5.7399 211.395 7.0399 212.195 8.4399C212.995 9.8399 213.415 11.1799 213.455 12.4599C213.455 12.8199 213.315 13.1399 213.035 13.4199C212.795 13.6599 212.515 13.7799 212.195 13.7799H202.175C201.695 13.7799 201.275 13.6999 200.915 13.5399C200.722 13.4434 200.536 13.3105 200.358 13.1412C200.284 13.0712 200.469 13.2462 200.427 13.2017C200.369 13.1396 200.374 13.145 200.321 13.0784C200.283 13.0306 200.115 12.7892 199.778 12.3063C199.514 11.9263 199.092 11.5775 198.515 11.2599C197.715 10.8199 196.695 10.5999 195.455 10.5999C194.095 10.5999 193.055 10.8399 192.335 11.3199C191.615 11.7599 191.255 12.4199 191.255 13.2999C191.255 13.8999 191.475 14.4199 191.915 14.8599C192.355 15.2999 193.135 15.6999 194.255 16.0599C195.375 16.3799 196.935 16.7399 198.935 17.1399C202.735 17.6999 205.795 18.4999 208.115 19.5399C210.475 20.5799 212.195 21.9399 213.275 23.6199C214.355 25.2999 214.895 27.3999 214.895 29.9199C214.895 32.7599 214.075 35.1999 212.435 37.2399C210.795 39.2799 208.535 40.8599 205.655 41.9799C202.815 43.0599 199.555 43.5999 195.875 43.5999Z" fill="#50BF56"/>
<path d="M230.486 42.9999C230.046 42.9999 229.666 42.8599 229.346 42.5799C229.066 42.2599 228.926 41.8799 228.926 41.4399V15.3599C228.926 14.2398 228.926 13.6797 228.708 13.2519C228.516 12.8756 228.211 12.5696 227.834 12.3779C227.406 12.1599 226.846 12.1599 225.726 12.1599H218.606C218.166 12.1599 217.786 12.0199 217.466 11.7399C217.186 11.4199 217.046 11.0399 217.046 10.5999V2.5599C217.046 2.1199 217.186 1.7599 217.466 1.4799C217.786 1.1599 218.166 0.999902 218.606 0.999902H252.326C252.766 0.999902 253.126 1.1599 253.406 1.4799C253.726 1.7599 253.886 2.1199 253.886 2.5599V10.5999C253.886 11.0399 253.726 11.4199 253.406 11.7399C253.126 12.0199 252.766 12.1599 252.326 12.1599H245.206C244.086 12.1599 243.526 12.1599 243.098 12.3779C242.722 12.5696 242.416 12.8756 242.224 13.2519C242.006 13.6797 242.006 14.2398 242.006 15.3599V41.4399C242.006 41.8799 241.846 42.2599 241.526 42.5799C241.246 42.8599 240.886 42.9999 240.446 42.9999H230.486Z" fill="#50BF56"/>
<path d="M260.327 42.9999C259.927 42.9999 259.567 42.8599 259.247 42.5799C258.927 42.2599 258.767 41.8799 258.767 41.4399V2.5599C258.767 2.1199 258.927 1.7599 259.247 1.4799C259.567 1.1599 259.927 0.999902 260.327 0.999902H277.427C282.867 0.999902 287.127 2.2399 290.207 4.7199C293.327 7.1999 294.887 10.6599 294.887 15.0999C294.887 17.8999 294.247 20.2799 292.967 22.2399C292.283 23.2865 291.486 24.2134 290.574 25.0205C289.528 25.947 289.004 26.4103 288.829 26.7814C288.648 27.1657 288.605 27.4096 288.647 27.8325C288.688 28.241 288.954 28.7239 289.486 29.6897L295.727 41.0199C295.847 41.2599 295.907 41.4799 295.907 41.6799C295.907 42.0399 295.787 42.3599 295.547 42.6399C295.307 42.8799 295.007 42.9999 294.647 42.9999H284.507C283.747 42.9999 283.167 42.8199 282.767 42.4599C282.367 42.0599 282.107 41.6999 281.987 41.3799L276.713 30.5163C276.54 30.1593 276.453 29.9808 276.344 29.8326C276.043 29.4246 275.598 29.1461 275.1 29.0535C274.919 29.0199 274.72 29.0199 274.323 29.0199V29.0199C273.713 29.0199 273.408 29.0199 273.157 29.086C272.46 29.2697 271.917 29.8135 271.733 30.5099C271.667 30.7606 271.667 31.0659 271.667 31.6765V41.4399C271.667 41.8799 271.507 42.2599 271.187 42.5799C270.907 42.8599 270.547 42.9999 270.107 42.9999H260.327ZM271.667 15.9199C271.667 17.04 271.667 17.6001 271.885 18.0279C272.077 18.4042 272.383 18.7102 272.759 18.9019C273.187 19.1199 273.747 19.1199 274.867 19.1199H277.367C278.767 19.1199 279.807 18.7399 280.487 17.9799C281.167 17.1799 281.507 16.1999 281.507 15.0399C281.507 13.8399 281.167 12.8199 280.487 11.9799C279.847 11.1399 278.807 10.7199 277.367 10.7199H274.867C273.747 10.7199 273.187 10.7199 272.759 10.9379C272.383 11.1296 272.077 11.4356 271.885 11.8119C271.667 12.2397 271.667 12.7998 271.667 13.9199V15.9199Z" fill="#50BF56"/>
<path d="M302.749 42.9999C302.349 42.9999 301.989 42.8599 301.669 42.5799C301.349 42.2599 301.189 41.8799 301.189 41.4399V2.5599C301.189 2.1199 301.349 1.7599 301.669 1.4799C301.989 1.1599 302.349 0.999902 302.749 0.999902H312.949C313.389 0.999902 313.749 1.1599 314.029 1.4799C314.349 1.7599 314.509 2.1199 314.509 2.5599V41.4399C314.509 41.8799 314.349 42.2599 314.029 42.5799C313.749 42.8599 313.389 42.9999 312.949 42.9999H302.749Z" fill="#50BF56"/>
<path d="M323.491 42.9999C323.091 42.9999 322.731 42.8599 322.411 42.5799C322.091 42.2599 321.931 41.8799 321.931 41.4399V2.5599C321.931 2.1199 322.091 1.7599 322.411 1.4799C322.731 1.1599 323.091 0.999902 323.491 0.999902H339.931C343.811 0.999902 347.171 1.6399 350.011 2.9199C352.851 4.1599 355.091 5.9999 356.731 8.4399C358.371 10.8799 359.251 13.8799 359.371 17.4399C359.451 19.1599 359.491 20.6799 359.491 21.9999C359.491 23.3199 359.451 24.8199 359.371 26.4999C359.211 30.2599 358.351 33.3599 356.791 35.7999C355.271 38.2399 353.111 40.0599 350.311 41.2599C347.511 42.4199 344.151 42.9999 340.231 42.9999H323.491ZM334.831 29.5999C334.831 30.72 334.831 31.2801 335.049 31.7079C335.241 32.0842 335.547 32.3902 335.923 32.5819C336.351 32.7999 336.911 32.7999 338.031 32.7999H339.931C341.251 32.7999 342.371 32.5799 343.291 32.1399C344.211 31.6999 344.931 31.0199 345.451 30.0999C345.971 29.1399 346.251 27.9199 346.291 26.4399C346.331 25.2799 346.351 24.2399 346.351 23.3199C346.391 22.3999 346.391 21.4799 346.351 20.5599C346.351 19.6399 346.331 18.6199 346.291 17.4999C346.211 15.2999 345.571 13.6999 344.371 12.6999C343.211 11.6999 341.631 11.1999 339.631 11.1999H338.031C336.911 11.1999 336.351 11.1999 335.923 11.4179C335.547 11.6096 335.241 11.9156 335.049 12.2919C334.831 12.7197 334.831 13.2798 334.831 14.3999V29.5999Z" fill="#50BF56"/>
<path d="M367.143 42.9999C366.743 42.9999 366.383 42.8599 366.063 42.5799C365.743 42.2599 365.583 41.8799 365.583 41.4399V2.5599C365.583 2.1199 365.743 1.7599 366.063 1.4799C366.383 1.1599 366.743 0.999902 367.143 0.999902H396.543C396.983 0.999902 397.363 1.1599 397.683 1.4799C398.003 1.7599 398.163 2.1199 398.163 2.5599V9.6399C398.163 10.0399 398.003 10.3999 397.683 10.7199C397.363 11.0399 396.983 11.1999 396.543 11.1999H380.973C380.07 11.1999 379.618 11.1999 379.26 11.3433C378.752 11.5465 378.35 11.9488 378.147 12.4564C378.003 12.8143 378.003 13.2662 378.003 14.1699V14.1699C378.003 15.0736 378.003 15.5255 378.147 15.8835C378.35 16.391 378.752 16.7933 379.26 16.9966C379.618 17.1399 380.07 17.1399 380.973 17.1399H395.223C395.663 17.1399 396.043 17.2999 396.363 17.6199C396.683 17.8999 396.843 18.2599 396.843 18.6999V25.1799C396.843 25.6199 396.683 25.9999 396.363 26.3199C396.043 26.5999 395.663 26.7399 395.223 26.7399H381.033C380.073 26.7399 379.593 26.7399 379.216 26.9013C378.744 27.1036 378.367 27.4802 378.165 27.9528C378.003 28.3298 378.003 28.8098 378.003 29.7699V29.7699C378.003 30.73 378.003 31.21 378.165 31.587C378.367 32.0596 378.744 32.4362 379.216 32.6385C379.593 32.7999 380.073 32.7999 381.033 32.7999H397.023C397.463 32.7999 397.843 32.9599 398.163 33.2799C398.483 33.5999 398.643 33.9799 398.643 34.4199V41.4399C398.643 41.8799 398.483 42.2599 398.163 42.5799C397.843 42.8599 397.463 42.9999 397.023 42.9999H367.143Z" fill="#50BF56"/>
</svg>
